<svg width="320" height="320" viewBox="0 0 320 320" fill="none" xmlns="http://www.w3.org/2000/svg">
  <rect width="320" height="320" rx="36" fill="#EAEEF5"/>
  <rect x="26" y="26" width="268" height="268" rx="24" fill="#0F172A"/>
  <path d="M160 92C126.416 92 99.0803 119.336 99.0803 152.92C99.0803 186.504 126.416 213.84 160 213.84C193.584 213.84 220.92 186.504 220.92 152.92C220.92 119.336 193.584 92 160 92ZM160 104.64C186.624 104.64 207.28 125.296 207.28 151.92C207.28 178.544 186.624 199.2 160 199.2C133.376 199.2 112.72 178.544 112.72 151.92C112.72 125.296 133.376 104.64 160 104.64Z" fill="#6EE7B7"/>
  <path d="M159.5 140C146.693 140 136.32 150.373 136.32 163.18V185.3C136.32 188.166 138.614 190.46 141.48 190.46H177.52C180.386 190.46 182.68 188.166 182.68 185.3V163.18C182.68 150.373 172.307 140 159.5 140Z" fill="#CBD5F5"/>
  <path d="M159.5 119C152.311 119 146.48 124.831 146.48 132.02C146.48 139.209 152.311 145.04 159.5 145.04C166.689 145.04 172.52 139.209 172.52 132.02C172.52 124.831 166.689 119 159.5 119Z" fill="#CBD5F5"/>
  <text x="160" y="264" text-anchor="middle" font-family="'Inter', 'Segoe UI', sans-serif" font-size="40" font-weight="600" fill="#CBD5F5">SK</text>
</svg>
